<svg width="1440" height="9799" viewBox="0 0 1440 9799" fill="none" xmlns="http://www.w3.org/2000/svg">
<g clip-path="url(#clip0_1242_7945)">
<rect width="1440" height="9799" fill="#0F0E10"/>
<g filter="url(#filter0_f_1242_7945)">
<path d="M1095.85 5958.88C1209.03 5797.45 1323.25 6127.95 1417.97 6890.97C1512.69 7654 1581.72 8799.53 1612.63 10121.7C1643.55 11443.9 1634.34 12856.1 1586.65 14104.5C1538.96 15352.9 1455.93 16355.7 1352.46 16932.7C1249 17509.7 1131.89 17623 1022.18 17252.3C912.464 16881.7 817.344 16051.3 753.907 14910.5C690.471 13769.6 662.876 12393.1 676.083 11028.1C689.289 9663.24 742.431 8399.48 825.958 7463.94L1151.73 11692.6L1095.85 5958.88Z" fill="#6E0D6E"/>
</g>
<g filter="url(#filter1_f_1242_7945)">
<path d="M1134.77 869.998C1297.97 637.238 1457.27 560.795 1584.05 654.406C1710.82 748.017 1796.76 1005.54 1826.42 1380.71C1856.07 1755.88 1827.51 2224.09 1745.85 2701.22C1664.2 3178.34 1534.81 3633.1 1380.93 3983.77C1227.05 4334.44 1058.78 4558.04 906.338 4614.39C753.901 4670.73 627.297 4556.13 549.276 4291.18C471.255 4026.22 446.931 3628.28 480.676 3168.87C514.421 2709.45 604.022 2218.68 733.379 1784.73L1151.85 2621.94L1134.77 869.998Z" fill="#41124B" fill-opacity="0.5"/>
</g>
<g filter="url(#filter2_f_1242_7945)">
<path d="M-132.652 -1453.88C-19.4692 -1615.3 94.7455 -1284.81 189.469 -521.786C284.193 241.238 353.215 1386.77 384.134 2708.97C415.052 4031.17 405.84 5443.35 358.152 6691.75C310.464 7940.16 227.427 8942.95 123.962 9519.93C20.4974 10096.9 -96.6127 10210.3 -206.324 9839.59C-316.036 9468.93 -411.156 8638.57 -474.593 7497.71C-538.029 6356.85 -565.624 4980.29 -552.417 3615.39C-539.211 2250.49 -486.069 986.721 -402.542 51.18L-76.7744 4279.89L-132.652 -1453.88Z" fill="#1B043E"/>
</g>
</g>
<defs>
<filter id="filter0_f_1242_7945" x="-227.145" y="5018.88" width="2757.74" height="13347.5" filterUnits="userSpaceOnUse" color-interpolation-filters="sRGB">
<feFlood flood-opacity="0" result="BackgroundImageFix"/>
<feBlend mode="normal" in="SourceGraphic" in2="BackgroundImageFix" result="shape"/>
<feGaussianBlur stdDeviation="450" result="effect1_foregroundBlur_1242_7945"/>
</filter>
<filter id="filter1_f_1242_7945" x="-434.141" y="-284.534" width="3171.97" height="5812.94" filterUnits="userSpaceOnUse" color-interpolation-filters="sRGB">
<feFlood flood-opacity="0" result="BackgroundImageFix"/>
<feBlend mode="normal" in="SourceGraphic" in2="BackgroundImageFix" result="shape"/>
<feGaussianBlur stdDeviation="450" result="effect1_foregroundBlur_1242_7945"/>
</filter>
<filter id="filter2_f_1242_7945" x="-1455.64" y="-2393.88" width="2757.74" height="13347.5" filterUnits="userSpaceOnUse" color-interpolation-filters="sRGB">
<feFlood flood-opacity="0" result="BackgroundImageFix"/>
<feBlend mode="normal" in="SourceGraphic" in2="BackgroundImageFix" result="shape"/>
<feGaussianBlur stdDeviation="450" result="effect1_foregroundBlur_1242_7945"/>
</filter>
<clipPath id="clip0_1242_7945">
<rect width="1440" height="9799" fill="white"/>
</clipPath>
</defs>
</svg>
