<svg width="1440" height="4589" viewBox="0 0 1440 4589" fill="none" xmlns="http://www.w3.org/2000/svg">
<g clip-path="url(#clip0_1242_7945)">
<rect width="1440" height="4589" fill="#0F0E10"/>
<g filter="url(#filter0_f_1242_7945)">
<path d="M1095.85 2790.62C1209.03 2715.02 1323.25 2869.8 1417.97 3227.13C1512.69 3584.47 1581.72 4120.93 1612.63 4740.14C1643.55 5359.34 1634.34 6020.68 1586.65 6605.33C1538.96 7189.97 1455.93 7659.59 1352.46 7929.8C1249 8200.01 1131.89 8253.09 1022.18 8079.5C912.464 7905.92 817.344 7517.05 753.907 6982.77C690.471 6448.49 662.876 5803.83 676.083 5164.63C689.289 4525.43 742.431 3933.59 825.958 3495.46L1151.73 5475.82L1095.85 2790.62Z" fill="#311B3E"/>
</g>
<g filter="url(#filter1_f_1242_7945)">
<path d="M1134.77 407.431C1297.97 298.427 1457.27 262.628 1584.05 306.467C1710.82 350.306 1796.76 470.909 1826.42 646.605C1856.07 822.301 1827.51 1041.57 1745.86 1265.02C1664.2 1488.46 1534.81 1701.43 1380.93 1865.65C1227.05 2029.88 1058.78 2134.59 906.339 2160.98C753.901 2187.36 627.297 2133.7 549.276 2009.61C471.255 1885.53 446.931 1699.17 480.676 1484.02C514.421 1268.87 604.022 1039.04 733.379 835.813L1151.85 1227.89L1134.77 407.431Z" fill="#2F193A" fill-opacity="0.5"/>
</g>
<g filter="url(#filter2_f_1242_7945)">
<path d="M-132.652 -680.871C-19.4691 -756.468 94.7457 -601.694 189.469 -244.359C284.193 112.975 353.215 649.443 384.134 1268.65C415.053 1887.85 405.84 2549.19 358.152 3133.84C310.465 3718.48 227.428 4188.1 123.963 4458.31C20.4975 4728.52 -96.6126 4781.6 -206.324 4608.01C-316.036 4434.43 -411.156 4045.55 -474.593 3511.28C-538.029 2977 -565.624 2332.34 -552.417 1693.13C-539.211 1053.93 -486.069 462.095 -402.542 23.9684L-76.7743 2004.33L-132.652 -680.871Z" fill="#271730"/>
</g>
</g>
<defs>
<filter id="filter0_f_1242_7945" x="-227.145" y="1871.89" width="2757.74" height="7207.86" filterUnits="userSpaceOnUse" color-interpolation-filters="sRGB">
<feFlood flood-opacity="0" result="BackgroundImageFix"/>
<feBlend mode="normal" in="SourceGraphic" in2="BackgroundImageFix" result="shape"/>
<feGaussianBlur stdDeviation="450" result="effect1_foregroundBlur_1242_7945"/>
</filter>
<filter id="filter1_f_1242_7945" x="-434.141" y="-611.769" width="3171.97" height="3679.31" filterUnits="userSpaceOnUse" color-interpolation-filters="sRGB">
<feFlood flood-opacity="0" result="BackgroundImageFix"/>
<feBlend mode="normal" in="SourceGraphic" in2="BackgroundImageFix" result="shape"/>
<feGaussianBlur stdDeviation="450" result="effect1_foregroundBlur_1242_7945"/>
</filter>
<filter id="filter2_f_1242_7945" x="-1455.64" y="-1599.6" width="2757.74" height="7207.86" filterUnits="userSpaceOnUse" color-interpolation-filters="sRGB">
<feFlood flood-opacity="0" result="BackgroundImageFix"/>
<feBlend mode="normal" in="SourceGraphic" in2="BackgroundImageFix" result="shape"/>
<feGaussianBlur stdDeviation="450" result="effect1_foregroundBlur_1242_7945"/>
</filter>
<clipPath id="clip0_1242_7945">
<rect width="1440" height="4589" fill="white"/>
</clipPath>
</defs>
</svg>
