<svg xmlns="http://www.w3.org/2000/svg" width="26" height="27" viewBox="0 0 26 27" fill="none">
  <path d="M12.0804 0C3.81373 0 0.240399 7.37333 0.240399 7.37333L1.29373 8.12C1.29373 8.12 -0.026268 10.6667 0.000398667 13.8667C0.000398667 20.4533 5.25373 26.6667 12.9604 26.6667C19.9737 26.6667 25.7604 20.9467 25.7604 13.88C25.7604 4.66667 18.6137 0 12.0804 0ZM12.1604 2.25333C18.6137 2.25333 23.6271 7.46667 23.6271 13.52C23.6271 19.9333 18.8004 24.4 13.1737 24.4C9.0404 24.4 5.30707 21.2533 5.30707 16.9333C5.30707 14.4267 6.62707 12.6667 8.1204 11.76L8.33373 12C7.93373 12.32 6.77373 14.1867 6.77373 16C6.77373 19.4133 9.4404 21.7733 12.8004 21.7733C17.0804 21.7733 19.9337 18.12 19.9337 13.88C19.9337 8.94667 15.5737 4.76 10.3337 4.76C7.4404 4.76 4.98707 6 3.57373 7.10667L3.34707 6.90667C5.2004 4.05333 8.4004 2.25333 12.1604 2.25333ZM10.2004 6.97333C13.5737 6.97333 16.8271 9.18667 17.6537 12.3333L17.3471 12.44C15.8937 10.5067 13.4937 8.90667 10.6671 8.90667C5.45373 8.90667 2.7204 13.64 3.1204 17.5867L2.81373 17.7067C2.81373 17.7067 2.2404 16.44 2.2404 14.9333C2.2404 10.5733 5.81373 6.97333 10.2004 6.97333ZM12.4404 12.44C14.0137 12.44 15.2804 13.7333 15.2804 15.2533C15.2804 16.5067 14.4804 17.2533 14.4804 17.2533L15.4271 17.9333C15.4271 17.9333 14.4804 19.4267 12.5471 19.4267C10.6937 19.4267 9.0404 17.92 9.0404 15.9067C9.0404 13.84 10.8271 12.44 12.4404 12.44Z" fill="white"/>
</svg>