<svg width="353" height="354" viewBox="0 0 353 354" fill="none" xmlns="http://www.w3.org/2000/svg">
<path d="M353 177C353 274.478 273.978 353.5 176.5 353.5C79.0217 353.5 0 274.478 0 177C0 79.5217 79.0217 0.5 176.5 0.5C273.978 0.5 353 79.5217 353 177Z" fill="#DAC39D"/>
<path d="M341.234 177C341.234 267.98 267.481 341.733 176.501 341.733C85.5212 341.733 11.7676 267.98 11.7676 177C11.7676 86.0203 85.5212 12.2667 176.501 12.2667C267.481 12.2667 341.234 86.0203 341.234 177Z" fill="#E475EF"/>
<path opacity="0.7" d="M329.467 177C329.467 261.481 260.981 329.967 176.5 329.967C92.0187 329.967 23.5332 261.481 23.5332 177C23.5332 92.5188 92.0187 24.0333 176.5 24.0333C260.981 24.0333 329.467 92.5188 329.467 177Z" fill="#D8B1E7"/>
<path d="M317.701 177C317.701 254.983 254.483 318.2 176.501 318.2C98.5182 318.2 35.3008 254.983 35.3008 177C35.3008 99.0174 98.5182 35.8 176.501 35.8C254.483 35.8 317.701 99.0174 317.701 177Z" fill="#7D98DF"/>
<path d="M305.933 177C305.933 248.484 247.984 306.433 176.5 306.433C105.016 306.433 47.0664 248.484 47.0664 177C47.0664 105.516 105.016 47.5667 176.5 47.5667C247.984 47.5667 305.933 105.516 305.933 177Z" fill="#FB8EDC"/>
<path d="M294.167 177C294.167 241.985 241.486 294.667 176.501 294.667C111.515 294.667 58.834 241.985 58.834 177C58.834 112.014 111.515 59.3333 176.501 59.3333C241.486 59.3333 294.167 112.014 294.167 177Z" fill="#B0DABF"/>
<path d="M282.4 177C282.4 235.487 234.987 282.9 176.5 282.9C118.013 282.9 70.5996 235.487 70.5996 177C70.5996 118.513 118.013 71.1 176.5 71.1C234.987 71.1 282.4 118.513 282.4 177Z" fill="#DACD68"/>
<path d="M270.634 177C270.634 228.988 228.489 271.133 176.501 271.133C124.512 271.133 82.3672 228.988 82.3672 177C82.3672 125.012 124.512 82.8667 176.501 82.8667C228.489 82.8667 270.634 125.012 270.634 177Z" fill="#EB9A5D"/>
<path d="M258.866 177C258.866 222.49 221.989 259.367 176.499 259.367C131.01 259.367 94.1328 222.49 94.1328 177C94.1328 131.51 131.01 94.6333 176.499 94.6333C221.989 94.6333 258.866 131.51 258.866 177Z" fill="#CC889A"/>
<path d="M247.1 177C247.1 215.991 215.492 247.6 176.5 247.6C137.509 247.6 105.9 215.991 105.9 177C105.9 138.009 137.509 106.4 176.5 106.4C215.492 106.4 247.1 138.009 247.1 177Z" fill="#91D0D0"/>
<path d="M235.333 177C235.333 209.493 208.992 235.833 176.499 235.833C144.007 235.833 117.666 209.493 117.666 177C117.666 144.507 144.007 118.167 176.499 118.167C208.992 118.167 235.333 144.507 235.333 177Z" fill="#E0A381"/>
<path d="M223.567 177C223.567 202.994 202.494 224.067 176.5 224.067C150.506 224.067 129.434 202.994 129.434 177C129.434 151.006 150.506 129.933 176.5 129.933C202.494 129.933 223.567 151.006 223.567 177Z" fill="#B3B1B0"/>
<path d="M211.799 177C211.799 196.496 195.995 212.3 176.499 212.3C157.004 212.3 141.199 196.496 141.199 177C141.199 157.504 157.004 141.7 176.499 141.7C195.995 141.7 211.799 157.504 211.799 177Z" fill="#76E1BA"/>
</svg>
